<svg xmlns="http://www.w3.org/2000/svg" xmlns:xlink="http://www.w3.org/1999/xlink" width="178" zoomAndPan="magnify" viewBox="0 0 133.5 45.749998" height="61" preserveAspectRatio="xMidYMid meet" version="1.0"><defs><clipPath id="abd54d6e8c"><path d="M 7.671875 26 L 125.527344 26 L 125.527344 33.847656 L 7.671875 33.847656 Z M 7.671875 26 " clip-rule="nonzero"/></clipPath><clipPath id="99227c5678"><path d="M 48 11.46875 L 59 11.46875 L 59 24 L 48 24 Z M 48 11.46875 " clip-rule="nonzero"/></clipPath><clipPath id="27f1318eaf"><path d="M 59 11.46875 L 70 11.46875 L 70 24 L 59 24 Z M 59 11.46875 " clip-rule="nonzero"/></clipPath><clipPath id="3ba774e811"><path d="M 69 11.46875 L 80 11.46875 L 80 24 L 69 24 Z M 69 11.46875 " clip-rule="nonzero"/></clipPath><clipPath id="e1b4895eec"><path d="M 81 11.46875 L 84 11.46875 L 84 24 L 81 24 Z M 81 11.46875 " clip-rule="nonzero"/></clipPath><clipPath id="81388df569"><path d="M 86 11.46875 L 96 11.46875 L 96 24 L 86 24 Z M 86 11.46875 " clip-rule="nonzero"/></clipPath><clipPath id="e4a83e2f6f"><path d="M 98 11.46875 L 102 11.46875 L 102 24 L 98 24 Z M 98 11.46875 " clip-rule="nonzero"/></clipPath><clipPath id="1fc1e8a1f1"><path d="M 103 11.46875 L 114 11.46875 L 114 24 L 103 24 Z M 103 11.46875 " clip-rule="nonzero"/></clipPath><clipPath id="52a9655d43"><path d="M 115 11.46875 L 125 11.46875 L 125 24 L 115 24 Z M 115 11.46875 " clip-rule="nonzero"/></clipPath><clipPath id="f37dcad8c3"><path d="M 8 11.46875 L 17 11.46875 L 17 24 L 8 24 Z M 8 11.46875 " clip-rule="nonzero"/></clipPath><clipPath id="ff4e7a3f3d"><path d="M 18 11.46875 L 26 11.46875 L 26 24 L 18 24 Z M 18 11.46875 " clip-rule="nonzero"/></clipPath><clipPath id="40656512bc"><path d="M 27 11.46875 L 36 11.46875 L 36 24 L 27 24 Z M 27 11.46875 " clip-rule="nonzero"/></clipPath><clipPath id="cfc9d913c5"><path d="M 37 11.46875 L 46 11.46875 L 46 24 L 37 24 Z M 37 11.46875 " clip-rule="nonzero"/></clipPath></defs><g clip-path="url(#abd54d6e8c)"><path fill="#5fad00" d="M 22.828125 33.847656 L 22.890625 28.796875 L 7.84375 28.796875 L 7.84375 26.667969 L 25.105469 26.667969 L 25.039062 30.238281 L 31.804688 26.667969 L 125.359375 26.667969 L 125.359375 28.796875 L 32.355469 28.796875 Z M 22.828125 33.847656 " fill-opacity="1" fill-rule="nonzero"/></g><g clip-path="url(#99227c5678)"><path fill="#3b3f40" d="M 52.226562 13.976562 L 48.980469 13.976562 L 48.980469 11.761719 L 58.109375 11.761719 L 58.109375 13.976562 L 54.863281 13.976562 L 54.863281 23.410156 L 52.207031 23.410156 L 52.207031 13.976562 Z M 52.226562 13.976562 " fill-opacity="1" fill-rule="nonzero"/></g><g clip-path="url(#27f1318eaf)"><path fill="#3b3f40" d="M 59.960938 11.761719 L 64.199219 11.761719 C 66.683594 11.761719 68.730469 12.617188 68.730469 15.394531 C 68.730469 18.066406 66.683594 19.214844 64.199219 19.214844 L 62.617188 19.214844 L 62.617188 23.410156 L 59.960938 23.410156 Z M 63.964844 17.128906 C 65.359375 17.128906 66.117188 16.542969 66.117188 15.394531 C 66.117188 14.246094 65.359375 13.851562 63.964844 13.851562 L 62.597656 13.851562 L 62.597656 17.128906 Z M 63.691406 18.527344 L 65.527344 16.835938 L 69.277344 23.410156 L 66.304688 23.410156 Z M 63.691406 18.527344 " fill-opacity="1" fill-rule="nonzero"/></g><g clip-path="url(#3ba774e811)"><path fill="#3b3f40" d="M 73.050781 11.761719 L 76.234375 11.761719 L 79.921875 23.410156 L 77.117188 23.410156 L 75.578125 17.523438 C 75.242188 16.355469 74.945312 14.976562 74.628906 13.765625 L 74.566406 13.765625 C 74.292969 14.996094 73.976562 16.355469 73.640625 17.523438 L 72.101562 23.410156 L 69.382812 23.410156 Z M 71.785156 18.589844 L 77.433594 18.589844 L 77.433594 20.632812 L 71.785156 20.632812 Z M 71.785156 18.589844 " fill-opacity="1" fill-rule="nonzero"/></g><g clip-path="url(#e1b4895eec)"><path fill="#3b3f40" d="M 81.058594 11.761719 L 83.714844 11.761719 L 83.714844 23.410156 L 81.058594 23.410156 Z M 81.058594 11.761719 " fill-opacity="1" fill-rule="nonzero"/></g><g clip-path="url(#81388df569)"><path fill="#3b3f40" d="M 86.476562 11.761719 L 89.195312 11.761719 L 92.269531 17.542969 L 93.429688 20.113281 L 93.492188 20.113281 C 93.367188 18.878906 93.15625 17.253906 93.15625 15.875 L 93.15625 11.761719 L 95.683594 11.761719 L 95.683594 23.410156 L 92.964844 23.410156 L 89.890625 17.605469 L 88.730469 15.058594 L 88.667969 15.058594 C 88.792969 16.355469 89.003906 17.898438 89.003906 19.277344 L 89.003906 23.410156 L 86.476562 23.410156 Z M 86.476562 11.761719 " fill-opacity="1" fill-rule="nonzero"/></g><g clip-path="url(#e4a83e2f6f)"><path fill="#3b3f40" d="M 98.46875 11.761719 L 101.121094 11.761719 L 101.121094 23.410156 L 98.46875 23.410156 Z M 98.46875 11.761719 " fill-opacity="1" fill-rule="nonzero"/></g><g clip-path="url(#1fc1e8a1f1)"><path fill="#3b3f40" d="M 103.90625 11.761719 L 106.625 11.761719 L 109.699219 17.542969 L 110.859375 20.113281 L 110.921875 20.113281 C 110.796875 18.878906 110.585938 17.253906 110.585938 15.875 L 110.585938 11.761719 L 113.113281 11.761719 L 113.113281 23.410156 L 110.394531 23.410156 L 107.320312 17.605469 L 106.160156 15.058594 L 106.097656 15.058594 C 106.222656 16.355469 106.433594 17.898438 106.433594 19.277344 L 106.433594 23.410156 L 103.90625 23.410156 Z M 103.90625 11.761719 " fill-opacity="1" fill-rule="nonzero"/></g><g clip-path="url(#52a9655d43)"><path fill="#3b3f40" d="M 115.328125 17.648438 C 115.328125 13.785156 117.917969 11.554688 121.058594 11.554688 C 122.765625 11.554688 123.96875 12.285156 124.769531 13.054688 L 123.378906 14.746094 C 122.789062 14.226562 122.175781 13.828125 121.164062 13.828125 C 119.351562 13.828125 118.066406 15.226562 118.066406 17.566406 C 118.066406 19.964844 119.164062 21.34375 121.375 21.34375 C 121.839844 21.34375 122.324219 21.21875 122.621094 20.988281 L 122.621094 18.984375 L 120.679688 18.984375 L 120.679688 16.835938 L 124.980469 16.835938 L 124.980469 22.199219 C 124.179688 22.992188 122.746094 23.617188 121.101562 23.617188 C 117.855469 23.617188 115.328125 21.574219 115.328125 17.648438 Z M 115.328125 17.648438 " fill-opacity="1" fill-rule="nonzero"/></g><g clip-path="url(#f37dcad8c3)"><path fill="#3b3f40" d="M 8.664062 11.679688 L 12.035156 11.679688 C 14.691406 11.679688 16.484375 12.578125 16.484375 15.144531 C 16.484375 17.605469 14.714844 18.753906 12.121094 18.753906 L 10.183594 18.753906 L 10.183594 23.410156 L 8.664062 23.410156 Z M 11.933594 17.542969 C 13.996094 17.542969 14.988281 16.792969 14.988281 15.125 C 14.988281 13.433594 13.933594 12.890625 11.867188 12.890625 L 10.183594 12.890625 L 10.183594 17.542969 Z M 11.933594 17.542969 " fill-opacity="1" fill-rule="nonzero"/></g><g clip-path="url(#ff4e7a3f3d)"><path fill="#3b3f40" d="M 18.867188 11.679688 L 20.363281 11.679688 L 20.363281 22.136719 L 25.546875 22.136719 L 25.546875 23.390625 L 18.867188 23.390625 Z M 18.867188 11.679688 " fill-opacity="1" fill-rule="nonzero"/></g><g clip-path="url(#40656512bc)"><path fill="#3b3f40" d="M 27.0625 18.566406 L 27.0625 11.679688 L 28.558594 11.679688 L 28.558594 18.609375 C 28.558594 21.425781 29.761719 22.304688 31.300781 22.304688 C 32.859375 22.304688 34.101562 21.425781 34.101562 18.609375 L 34.101562 11.679688 L 35.535156 11.679688 L 35.535156 18.566406 C 35.535156 22.324219 33.703125 23.617188 31.277344 23.617188 C 28.898438 23.617188 27.0625 22.324219 27.0625 18.566406 Z M 27.0625 18.566406 " fill-opacity="1" fill-rule="nonzero"/></g><g clip-path="url(#cfc9d913c5)"><path fill="#3b3f40" d="M 37.707031 21.886719 L 38.613281 20.863281 C 39.457031 21.742188 40.65625 22.324219 41.878906 22.324219 C 43.4375 22.324219 44.34375 21.550781 44.34375 20.425781 C 44.34375 19.234375 43.480469 18.839844 42.363281 18.359375 L 40.65625 17.605469 C 39.5625 17.148438 38.253906 16.3125 38.253906 14.582031 C 38.253906 12.785156 39.835938 11.46875 41.984375 11.46875 C 43.398438 11.46875 44.640625 12.074219 45.460938 12.929688 L 44.660156 13.890625 C 43.945312 13.222656 43.058594 12.785156 41.984375 12.785156 C 40.65625 12.785156 39.773438 13.453125 39.773438 14.496094 C 39.773438 15.625 40.804688 16.042969 41.730469 16.4375 L 43.417969 17.167969 C 44.789062 17.753906 45.863281 18.566406 45.863281 20.300781 C 45.863281 22.15625 44.324219 23.640625 41.835938 23.640625 C 40.195312 23.617188 38.738281 22.949219 37.707031 21.886719 Z M 37.707031 21.886719 " fill-opacity="1" fill-rule="nonzero"/></g></svg>