<?xml version="1.0" encoding="UTF-8"?>
<!-- Generator: Adobe Illustrator 16.2.0, SVG Export Plug-In . SVG Version: 6.00 Build 0)  -->
<!DOCTYPE svg PUBLIC "-//W3C//DTD SVG 1.1//EN" "http://www.w3.org/Graphics/SVG/1.1/DTD/svg11.dtd" [
	<!ENTITY ns_extend "http://ns.adobe.com/Extensibility/1.0/">
	<!ENTITY ns_ai "http://ns.adobe.com/AdobeIllustrator/10.0/">
	<!ENTITY ns_graphs "http://ns.adobe.com/Graphs/1.0/">
	<!ENTITY ns_vars "http://ns.adobe.com/Variables/1.0/">
	<!ENTITY ns_imrep "http://ns.adobe.com/ImageReplacement/1.0/">
	<!ENTITY ns_sfw "http://ns.adobe.com/SaveForWeb/1.0/">
	<!ENTITY ns_custom "http://ns.adobe.com/GenericCustomNamespace/1.0/">
	<!ENTITY ns_adobe_xpath "http://ns.adobe.com/XPath/1.0/">
]>
<svg version="1.1" id="Ebene_1" xmlns:x="http://ns.adobe.com/Extensibility/1.0/" xmlns:i="http://ns.adobe.com/AdobeIllustrator/10.0/" xmlns:graph="http://ns.adobe.com/Graphs/1.0/" xmlns="http://www.w3.org/2000/svg" xmlns:xlink="http://www.w3.org/1999/xlink" x="0px" y="0px" width="177.979px" height="60.934px" viewBox="26.096 0 177.979 60.934" enable-background="new 26.096 0 177.979 60.934" xml:space="preserve">
<metadata>
	<sfw xmlns="http://ns.adobe.com/SaveForWeb/1.0/">
		<slices/>
		<sliceSourceBounds width="177.979" height="60.934" x="26.096" y="-0.434" bottomLeftOrigin="true"/>
	</sfw>
</metadata>
<g id="Ebene_2">
	<path fill="#FFFFFF" d="M190.26,60.934H39.91c-7.646,0-13.814-6.223-13.814-13.937V13.937C26.096,6.223,32.264,0,39.91,0h150.35   c7.646,0,13.814,6.223,13.814,13.937v33.061C204.074,54.711,197.906,60.934,190.26,60.934z"/>
</g>
<g id="Ebene_1_1_">
	<g>
		<path fill="#515491" d="M62.241,43.562c3.524-3.833,3.277-9.769-0.495-13.17c-3.772-3.463-9.708-3.092-13.171,0.741    c-2.103,2.289-2.845,5.318-2.35,8.101l0,0c0,0,0,0.125,0.062,0.372c0,0.061,0,0.061,0,0.123c0.247,1.298,0.928,4.885,0.495,7.111    l0,0l0,0l0,0l0,0c2.103-0.618,5.688-0.309,7.049-0.187c0.186,0,0.31,0.063,0.495,0.063c0.063,0,0.063,0,0.063,0l0,0    C57.232,46.901,60.2,45.85,62.241,43.562"/>
		<polygon fill="#302D2C" points="80.359,38.678 80.359,12.645 88.026,12.645 88.026,32.061 94.148,32.061 94.148,38.678   "/>
		<rect x="178.926" y="12.645" fill="#302D2C" width="7.604" height="25.971"/>
		<g>
			<path fill="#302D2C" d="M80.482,45.604c0.063-0.125,0.186-0.248,0.31-0.372c0.124-0.062,0.248-0.124,0.433-0.186     c0.186-0.061,0.371-0.061,0.557-0.061c0.495,0,0.742,0.061,0.865,0.122c0.063,0,0.063,0.063,0.063,0.063c0,0.062,0,0.062,0,0.124     c0,0.062,0,0.124-0.063,0.124c0,0.061-0.061,0.061-0.185,0.061c-0.124,0-0.186,0-0.309,0c-0.124,0-0.248,0-0.371,0     c-0.371,0-0.557,0.063-0.742,0.186c-0.124,0.125-0.186,0.311-0.186,0.495c0,0.186,0.062,0.372,0.186,0.557     c0.124,0.186,0.371,0.372,0.68,0.62c0.185,0.123,0.371,0.247,0.494,0.37c0.124,0.124,0.248,0.247,0.309,0.372     c0.063,0.122,0.124,0.247,0.186,0.37c0.062,0.123,0.062,0.247,0.062,0.371c0,0.433-0.124,0.741-0.433,0.927     c-0.247,0.185-0.618,0.311-1.113,0.311c-0.062,0-0.124,0-0.248,0c-0.062,0-0.185,0-0.247,0c-0.062,0-0.185,0-0.248-0.063     c-0.062,0-0.123,0-0.185-0.063c-0.062-0.06-0.124-0.06-0.124-0.185c0-0.062,0-0.123,0.062-0.123     c0.062-0.063,0.062-0.063,0.186-0.063c0.124,0,0.309,0.063,0.433,0.063c0.123,0,0.247,0,0.371,0c0.124,0,0.248,0,0.371-0.063     c0.124,0,0.248-0.062,0.309-0.123c0.062-0.062,0.186-0.124,0.248-0.248c0.062-0.061,0.062-0.186,0.062-0.37     c0-0.124,0-0.186-0.062-0.248c0-0.061-0.062-0.186-0.124-0.246c-0.061-0.063-0.185-0.187-0.309-0.247     c-0.124-0.125-0.247-0.187-0.433-0.372c-0.186-0.123-0.371-0.247-0.495-0.37c-0.124-0.126-0.247-0.248-0.31-0.372     c-0.062-0.124-0.123-0.248-0.185-0.372s-0.062-0.247-0.062-0.37C80.42,45.912,80.42,45.789,80.482,45.604"/>
			<path fill="#302D2C" d="M84.873,47.396c0,0.063,0.062,0.063,0.062,0.125c0,0,0.062,0.062,0.124,0.062c0.061,0,0.123,0,0.247,0     c0.185,0,0.371,0,0.556-0.062c0.124,0,0.31-0.063,0.371-0.186c0.124-0.063,0.186-0.186,0.248-0.312     c0.062-0.123,0.062-0.309,0.062-0.557c0-0.185,0-0.371-0.062-0.493c-0.062-0.125-0.124-0.248-0.186-0.311     c-0.062-0.061-0.186-0.123-0.309-0.123c-0.124-0.063-0.247-0.063-0.433-0.063h-0.124c-0.124,0-0.248,0-0.31,0     c-0.061,0-0.124,0-0.185,0.063c-0.062,0-0.062,0.063-0.062,0.123c0,0.063,0,0.125,0,0.186v1.36     C84.811,47.273,84.811,47.336,84.873,47.396 M84.749,49.871c-0.063,0-0.124,0.06-0.186,0.06c-0.062,0-0.124,0-0.185-0.06     c-0.062,0-0.062-0.063-0.062-0.187v-4.081c0-0.186,0.062-0.31,0.124-0.434c0.124-0.063,0.247-0.124,0.495-0.124h0.618     c0.495,0,0.866,0.124,1.113,0.31c0.247,0.186,0.371,0.557,0.371,1.051c0,0.31-0.062,0.495-0.124,0.682     c-0.061,0.186-0.185,0.371-0.309,0.434c-0.124,0.122-0.31,0.185-0.495,0.247c-0.185,0.062-0.432,0.062-0.68,0.062h-0.248     c-0.123,0-0.247,0-0.247,0.062c-0.062,0.062-0.062,0.062-0.062,0.187v1.545C84.811,49.746,84.811,49.809,84.749,49.871"/>
			<path fill="#302D2C" d="M89.016,47.396c0,0.063,0.062,0.063,0.062,0.125c0,0,0.062,0.062,0.124,0.062c0.062,0,0.124,0,0.248,0     c0.186,0,0.371,0,0.495-0.062c0.124-0.063,0.309-0.125,0.371-0.186c0.124-0.063,0.186-0.186,0.248-0.372     c0.062-0.124,0.062-0.311,0.062-0.558c0-0.185,0-0.31-0.062-0.432c-0.063-0.125-0.124-0.186-0.186-0.311     c-0.062-0.061-0.186-0.123-0.309-0.123c-0.124,0-0.248-0.063-0.433-0.063h-0.062c-0.124,0-0.247,0-0.309,0s-0.124,0-0.186,0.063     c-0.062,0-0.062,0.063-0.062,0.123c0,0.063,0,0.125,0,0.186v1.36C89.016,47.273,89.016,47.336,89.016,47.396 M88.953,49.871     c-0.061,0-0.123,0.06-0.185,0.06s-0.124,0-0.186-0.06c-0.062,0-0.062-0.063-0.062-0.187v-4.081c0-0.186,0.062-0.31,0.124-0.434     c0.124-0.063,0.248-0.124,0.495-0.124h0.619c0.433,0,0.866,0.124,1.113,0.31c0.247,0.186,0.433,0.494,0.433,0.989     c0,0.187,0,0.309-0.062,0.434c-0.062,0.123-0.062,0.246-0.185,0.372c-0.063,0.123-0.124,0.186-0.248,0.246     c-0.062,0.063-0.186,0.125-0.247,0.187c-0.063,0.061-0.124,0.061-0.124,0.123c0,0-0.062,0.063-0.062,0.124s0,0.062,0,0.123     s0.062,0.062,0.062,0.125l0.989,1.545c0.062,0.062,0.062,0.123,0.062,0.186s0,0.122-0.062,0.122     c-0.062,0.063-0.124,0.063-0.186,0.063c-0.062,0-0.124,0-0.185-0.063c-0.063-0.06-0.063-0.06-0.124-0.185l-0.062-0.123     c-0.124-0.247-0.309-0.434-0.433-0.681s-0.31-0.432-0.433-0.68c-0.062-0.124-0.124-0.185-0.247-0.248     c-0.063-0.062-0.186-0.062-0.372-0.062c-0.124,0-0.247,0-0.309,0.062c-0.062,0.063-0.062,0.124-0.062,0.186v1.608     C89.016,49.746,88.953,49.809,88.953,49.871"/>
			<path fill="#302D2C" d="M93.962,45.541c0,0-0.062,0.063-0.062,0.123c0,0.063-0.062,0.186-0.124,0.372     c-0.062,0.123-0.062,0.309-0.124,0.432c-0.062,0.186-0.124,0.31-0.124,0.496c-0.062,0.187-0.062,0.31-0.124,0.433     c-0.062,0.125-0.062,0.247-0.124,0.372c0,0.123-0.062,0.185-0.062,0.185c0,0.062,0,0.062,0.062,0.125c0.062,0,0.062,0,0.124,0     h1.175c0.063,0,0.124,0,0.124,0c0.062,0,0.062-0.063,0.062-0.125c0,0,0-0.062-0.062-0.185c0-0.125-0.062-0.247-0.062-0.372     c0-0.123-0.063-0.309-0.124-0.495c-0.062-0.186-0.062-0.31-0.124-0.495c-0.062-0.185-0.062-0.31-0.124-0.432     c-0.062-0.125-0.062-0.248-0.123-0.371c0-0.063-0.063-0.125-0.063-0.125s-0.061-0.061-0.124-0.061     C94.025,45.479,93.962,45.541,93.962,45.541 M95.323,49.871c-0.062-0.063-0.062-0.125-0.062-0.187l-0.248-0.927     c0-0.124-0.062-0.187-0.124-0.187c-0.062-0.061-0.124-0.061-0.247-0.061h-1.361c-0.062,0-0.124,0-0.185,0.061     c-0.062,0.063-0.062,0.124-0.124,0.187l-0.247,0.927c0,0.062-0.062,0.124-0.062,0.187c0,0-0.062,0.06-0.124,0.06     c-0.185,0-0.309-0.06-0.309-0.185c0-0.062,0-0.062,0-0.123c0-0.063,0-0.124,0.062-0.247c0.062-0.124,0.062-0.309,0.124-0.494     c0.062-0.187,0.123-0.434,0.186-0.682c0.062-0.247,0.124-0.494,0.185-0.741c0.062-0.249,0.124-0.495,0.248-0.743     c0.062-0.248,0.123-0.494,0.186-0.68c0.062-0.187,0.124-0.433,0.185-0.558c0.062-0.123,0.124-0.247,0.186-0.309     c0.062-0.063,0.186-0.124,0.371-0.124c0.186,0,0.309,0,0.371,0.062c0.062,0.063,0.124,0.187,0.186,0.311     c0.062,0.186,0.124,0.371,0.186,0.618c0.062,0.247,0.124,0.495,0.186,0.742c0.062,0.246,0.124,0.495,0.186,0.743     c0.062,0.247,0.123,0.493,0.186,0.741c0.062,0.248,0.124,0.433,0.186,0.619c0.062,0.186,0.062,0.308,0.124,0.432     c0,0.124,0.061,0.186,0.061,0.247c0,0.063,0,0.063,0,0.124s0,0.124-0.061,0.124C95.508,49.871,95.447,49.871,95.323,49.871     C95.385,49.931,95.323,49.871,95.323,49.871"/>
			<path fill="#302D2C" d="M97.425,48.386c0.062,0.248,0.124,0.434,0.186,0.618c0.124,0.186,0.247,0.31,0.371,0.372     c0.185,0.062,0.371,0.123,0.618,0.123c0.124,0,0.248,0,0.371,0c0.124,0,0.248-0.062,0.31-0.062s0.124,0,0.124,0     c0.062,0.062,0.062,0.062,0.062,0.186c0,0.062-0.062,0.186-0.124,0.186c-0.124,0.063-0.248,0.063-0.372,0.122     c-0.123,0-0.309,0-0.494,0c-0.31,0-0.619-0.06-0.804-0.185c-0.247-0.123-0.371-0.247-0.556-0.494     c-0.125-0.185-0.248-0.494-0.31-0.741c-0.063-0.311-0.063-0.619-0.063-1.052c0-0.371,0.063-0.743,0.063-1.053     c0.062-0.31,0.185-0.557,0.31-0.803c0.123-0.248,0.309-0.372,0.556-0.496c0.248-0.122,0.495-0.186,0.804-0.186     c0.185,0,0.371,0,0.494,0.063c0.124,0,0.248,0.061,0.372,0.122c0.062,0.063,0.124,0.124,0.124,0.187c0,0.062,0,0.124-0.062,0.185     c-0.062,0.063-0.062,0.063-0.124,0.063c-0.247-0.063-0.495-0.063-0.742-0.063c-0.247,0-0.433,0.063-0.618,0.125     c-0.185,0.061-0.309,0.186-0.371,0.371c-0.124,0.185-0.185,0.37-0.185,0.617c-0.062,0.248-0.062,0.559-0.062,0.93     C97.364,47.892,97.364,48.139,97.425,48.386"/>
			<path fill="#302D2C" d="M103.361,47.644c0,0-0.062-0.061-0.186-0.061h-1.607c-0.062,0-0.124,0-0.186,0.061     c0,0-0.062,0.063-0.062,0.187v1.916c0,0.063,0,0.125-0.062,0.185c-0.061,0-0.124,0.063-0.185,0.063c-0.063,0-0.124,0-0.186-0.063     c-0.062-0.06-0.062-0.122-0.062-0.185v-4.391c0-0.124,0-0.186,0.062-0.186s0.123-0.063,0.186-0.063c0.062,0,0.124,0,0.185,0.063     c0.062,0.062,0.062,0.062,0.062,0.186v1.732c0,0.063,0,0.124,0.062,0.186c0,0,0.062,0,0.186,0h1.607c0.062,0,0.124,0,0.186-0.062     c0,0,0.062-0.062,0.062-0.188v-1.73c0-0.124,0-0.187,0.062-0.187c0.062,0,0.124-0.062,0.185-0.062c0.063,0,0.124,0,0.187,0.062     c0.062,0.063,0.062,0.063,0.062,0.187v4.392c0,0.061,0,0.123-0.062,0.186c-0.063,0-0.124,0.06-0.187,0.06     c-0.061,0-0.123,0-0.185-0.06c-0.062-0.063-0.062-0.125-0.062-0.186v-1.917C103.423,47.706,103.361,47.644,103.361,47.644"/>
			<path fill="#302D2C" d="M105.402,47.892c0-0.062,0-0.062,0-0.123c0-0.063,0-0.125,0-0.125c0-0.061,0.061-0.061,0.123-0.061h1.485     c0.062,0,0.124,0,0.124,0.061c0,0.063,0,0.063,0,0.125c0,0.062,0,0.123,0,0.123c0,0.062-0.062,0.062-0.124,0.062h-1.485     C105.463,47.953,105.463,47.953,105.402,47.892"/>
			<path fill="#302D2C" d="M113.132,45.107c0.062,0,0.124-0.062,0.185-0.062c0.062,0,0.124,0,0.186,0.062     c0.062,0.063,0.062,0.124,0.062,0.187v3.525c0,0.37-0.124,0.68-0.433,0.866c-0.248,0.186-0.68,0.309-1.113,0.309     c-0.556,0-0.927-0.123-1.175-0.309c-0.247-0.187-0.371-0.496-0.371-0.866v-3.525c0-0.063,0-0.124,0.062-0.187     c0.062,0,0.124-0.062,0.185-0.062c0.063,0,0.124,0,0.186,0.062c0.062,0.063,0.062,0.124,0.062,0.187v3.34     c0,0.186,0,0.309,0.062,0.434c0.062,0.122,0.124,0.185,0.186,0.246c0.062,0.063,0.185,0.124,0.309,0.124s0.247,0.062,0.433,0.062     c0.124,0,0.309,0,0.433-0.062c0.124,0,0.248-0.062,0.31-0.124c0.124-0.062,0.186-0.185,0.248-0.246     c0.062-0.125,0.062-0.248,0.062-0.434v-3.34C113.008,45.17,113.069,45.107,113.132,45.107"/>
			<path fill="#302D2C" d="M118.264,49.809c-0.061,0.063-0.186,0.122-0.37,0.122c-0.187,0-0.31-0.06-0.373-0.122     c-0.061-0.063-0.122-0.186-0.185-0.31l-1.421-3.71c-0.063-0.125-0.063-0.125-0.125-0.125c0,0-0.062,0-0.062,0.063     c0,0,0,0.063,0,0.123v3.896c0,0.063,0,0.185-0.062,0.185c-0.063,0-0.124,0.063-0.186,0.063s-0.124,0-0.185-0.063     c-0.063,0-0.063-0.06-0.063-0.185v-4.082c0-0.186,0.063-0.309,0.124-0.37c0.063-0.063,0.186-0.124,0.371-0.124     c0.123,0,0.187,0,0.247,0c0.063,0,0.125,0.062,0.186,0.062c0.062,0.063,0.062,0.063,0.125,0.187c0,0.061,0.062,0.123,0.123,0.246     l1.359,3.588c0.063,0.124,0.063,0.186,0.125,0.186c0.062,0,0.062-0.062,0.062-0.124l-0.062-3.896c0-0.124,0-0.187,0.062-0.187     s0.123-0.062,0.185-0.062c0.063,0,0.124,0,0.186,0.062c0.063,0.063,0.063,0.124,0.063,0.187v4.143     C118.388,49.623,118.325,49.746,118.264,49.809"/>
			<path fill="#302D2C" d="M120.738,45.541c-0.063,0.063-0.063,0.123-0.063,0.248v3.4c0,0.124,0,0.187,0.063,0.187     c0.061,0,0.122,0.062,0.308,0.062h0.556c0.248,0,0.435,0,0.558-0.062c0.186-0.063,0.31-0.187,0.433-0.309     c0.124-0.125,0.186-0.372,0.247-0.619c0.063-0.248,0.063-0.618,0.063-0.989s0-0.743-0.063-0.991     c-0.062-0.246-0.123-0.432-0.247-0.618c-0.123-0.123-0.247-0.246-0.433-0.309c-0.185-0.063-0.371-0.063-0.558-0.063h-0.616     C120.86,45.479,120.799,45.541,120.738,45.541 M122.53,45.231c0.247,0.124,0.433,0.247,0.558,0.433     c0.123,0.186,0.246,0.433,0.246,0.742c0.062,0.31,0.062,0.618,0.062,0.93c0,0.433-0.062,0.742-0.062,1.05     c-0.061,0.31-0.123,0.557-0.309,0.804c-0.124,0.187-0.31,0.371-0.557,0.495c-0.248,0.124-0.494,0.187-0.867,0.187h-0.863     c-0.435,0-0.619-0.187-0.619-0.495v-3.712c0-0.186,0.063-0.309,0.185-0.433c0.124-0.062,0.248-0.124,0.495-0.124h0.866     C122.036,45.107,122.284,45.17,122.53,45.231"/>
			<path fill="#302D2C" d="M127.415,49.313c0,0.063,0.062,0.063,0.062,0.124c0.063,0,0.063,0.062,0.124,0.062     c0.063,0,0.124,0,0.247,0c0.248,0,0.434,0,0.619-0.062c0.186,0,0.308-0.062,0.434-0.124c0.122-0.062,0.185-0.185,0.246-0.31     c0.063-0.122,0.063-0.246,0.063-0.433c0-0.186-0.063-0.371-0.124-0.493c-0.063-0.125-0.124-0.248-0.247-0.31     c-0.124-0.063-0.248-0.125-0.371-0.186c-0.124,0-0.31-0.062-0.495-0.062h-0.371c-0.124,0-0.186,0-0.186,0.062     c-0.062,0-0.062,0.123-0.062,0.186v1.235C127.415,49.189,127.415,49.252,127.415,49.313 M127.477,47.21     c0.063,0.063,0.124,0.063,0.187,0.063h0.248c0.185,0,0.309,0,0.493,0c0.124,0,0.31-0.063,0.37-0.123     c0.126-0.063,0.187-0.187,0.248-0.311c0.063-0.124,0.124-0.309,0.124-0.495c0-0.309-0.124-0.495-0.309-0.618     c-0.186-0.123-0.434-0.186-0.805-0.186h-0.309c-0.124,0-0.248,0.063-0.248,0.063c-0.062,0.061-0.062,0.123-0.062,0.246v1.175     C127.415,47.088,127.415,47.21,127.477,47.21 M126.921,49.376v-3.712c0-0.186,0.062-0.309,0.123-0.433     c0.124-0.062,0.248-0.124,0.495-0.124h0.681c0.185,0,0.433,0,0.555,0.063c0.187,0.062,0.311,0.124,0.435,0.186     c0.123,0.123,0.248,0.186,0.309,0.371c0.062,0.123,0.124,0.31,0.124,0.557c0,0.185,0,0.309-0.063,0.433     c-0.062,0.124-0.122,0.248-0.186,0.309c-0.062,0.063-0.123,0.126-0.185,0.188c-0.063,0.062-0.124,0.124-0.187,0.124     c-0.062,0-0.062,0.061-0.062,0.061s0,0,0,0.063c0,0,0,0.063,0.062,0.063c0.063,0.062,0.124,0.062,0.248,0.122     c0.062,0.063,0.187,0.125,0.247,0.187c0.062,0.062,0.124,0.185,0.186,0.309s0.062,0.31,0.062,0.495     c0,0.248-0.062,0.434-0.123,0.618c-0.063,0.186-0.185,0.309-0.31,0.371c-0.123,0.123-0.31,0.186-0.494,0.186     c-0.186,0.063-0.371,0.063-0.557,0.063h-0.742C127.106,49.871,126.921,49.685,126.921,49.376"/>
			<path fill="#302D2C" d="M131.436,45.107c0.062,0,0.123-0.062,0.185-0.062c0.063,0,0.125,0,0.187,0.062     c0.061,0.063,0.061,0.124,0.061,0.187v4.392c0,0.061,0,0.186-0.061,0.186c-0.062,0-0.124,0.06-0.187,0.06     c-0.062,0-0.123,0-0.185-0.06c-0.062,0-0.062-0.063-0.062-0.186v-4.392C131.311,45.17,131.374,45.107,131.436,45.107"/>
			<path fill="#302D2C" d="M134.218,49.376c0.063,0,0.063,0.062,0.185,0.062h1.114c0.062,0,0.124,0,0.124,0.062     s0.062,0.124,0.062,0.124c0,0.062,0,0.123-0.062,0.186c-0.063,0.063-0.063,0.063-0.124,0.063h-1.236     c-0.433,0-0.619-0.187-0.619-0.495v-4.082c0-0.124,0.063-0.187,0.063-0.187c0.062,0,0.124-0.062,0.186-0.062s0.123,0,0.186,0.062     c0.062,0.063,0.062,0.124,0.062,0.187v3.958C134.156,49.313,134.156,49.376,134.218,49.376"/>
			<path fill="#302D2C" d="M137.494,45.541c-0.061,0.063-0.061,0.123-0.061,0.248v3.4c0,0.124,0,0.187,0.061,0.187     c0.063,0,0.126,0.062,0.311,0.062h0.557c0.247,0,0.432,0,0.557-0.062c0.185-0.063,0.309-0.187,0.433-0.309     c0.124-0.125,0.186-0.372,0.247-0.619c0.062-0.248,0.062-0.618,0.062-0.989s0-0.743-0.062-0.991     c-0.062-0.246-0.123-0.432-0.247-0.618c-0.124-0.123-0.248-0.246-0.433-0.309c-0.186-0.063-0.371-0.063-0.557-0.063h-0.557     C137.62,45.479,137.494,45.541,137.494,45.541 M139.288,45.231c0.248,0.124,0.434,0.247,0.557,0.433     c0.124,0.186,0.248,0.433,0.248,0.742c0.062,0.31,0.062,0.618,0.062,0.93c0,0.433,0,0.742-0.062,1.05     c-0.063,0.31-0.186,0.557-0.31,0.804c-0.124,0.187-0.309,0.371-0.557,0.495c-0.246,0.124-0.494,0.187-0.865,0.187h-0.867     c-0.432,0-0.617-0.187-0.617-0.495v-3.712c0-0.186,0.062-0.309,0.124-0.433c0.123-0.062,0.246-0.124,0.493-0.124h0.867     C138.732,45.107,139.04,45.17,139.288,45.231"/>
			<path fill="#302D2C" d="M144.359,45.107c0.061,0,0.123-0.062,0.186-0.062c0.062,0,0.122,0,0.185,0.062     c0.063,0.063,0.063,0.124,0.063,0.187v3.525c0,0.37-0.126,0.68-0.434,0.866c-0.248,0.186-0.682,0.309-1.113,0.309     c-0.557,0-0.927-0.123-1.175-0.309c-0.248-0.187-0.371-0.496-0.371-0.866v-3.525c0-0.063,0-0.124,0.062-0.187     c0.062,0,0.124-0.062,0.185-0.062c0.063,0,0.125,0,0.186,0.062c0.063,0.063,0.063,0.124,0.063,0.187v3.34     c0,0.186,0.063,0.309,0.063,0.434c0.063,0.122,0.123,0.185,0.247,0.246c0.062,0.063,0.186,0.124,0.31,0.124     c0.123,0,0.247,0.062,0.433,0.062c0.123,0,0.246,0,0.432-0.062c0.125,0,0.248-0.062,0.311-0.124     c0.062-0.062,0.186-0.185,0.186-0.246c0.062-0.125,0.062-0.248,0.062-0.434v-3.34C144.297,45.17,144.297,45.107,144.359,45.107"/>
			<path fill="#302D2C" d="M149.491,49.809c-0.062,0.063-0.187,0.122-0.372,0.122c-0.185,0-0.309-0.06-0.371-0.122     c-0.061-0.063-0.122-0.186-0.185-0.31l-1.422-3.71c-0.062-0.125-0.062-0.125-0.124-0.125c0,0-0.063,0-0.063,0.063     c0,0,0,0.063,0,0.123v3.896c0,0.063,0,0.185-0.061,0.185c-0.063,0-0.124,0.063-0.186,0.063c-0.063,0-0.125,0-0.186-0.063     c-0.063,0-0.063-0.06-0.063-0.185v-4.082c0-0.186,0.063-0.309,0.123-0.37c0.063-0.063,0.187-0.124,0.371-0.124     c0.125,0,0.187,0,0.248,0s0.124,0.062,0.186,0.062c0.063,0.063,0.063,0.063,0.123,0.187c0,0.061,0.062,0.123,0.125,0.246     l1.359,3.588c0.062,0.124,0.062,0.186,0.123,0.186c0.063,0,0.063-0.062,0.063-0.124l-0.063-3.896c0-0.124,0-0.187,0.063-0.187     c0.063,0,0.122-0.062,0.185-0.062s0.124,0,0.186,0.062c0.063,0.063,0.063,0.124,0.063,0.187v4.143     C149.615,49.623,149.615,49.746,149.491,49.809"/>
			<path fill="#302D2C" d="M153.757,47.706c0,0-0.061-0.063-0.185-0.063h-0.434c-0.061,0-0.123,0-0.123-0.061     c0-0.062-0.062-0.124-0.062-0.124c0-0.063,0-0.123,0.062-0.186c0-0.062,0.063-0.062,0.123-0.062h0.805     c0.186,0,0.31,0.062,0.371,0.124c0.062,0.061,0.062,0.186,0.062,0.37v1.854c0,0.063-0.062,0.124-0.123,0.186     c-0.063,0.063-0.186,0.063-0.31,0.125c-0.124,0-0.247,0.06-0.371,0.06s-0.247,0-0.372,0c-0.37,0-0.679-0.06-0.927-0.185     c-0.247-0.123-0.434-0.247-0.619-0.433c-0.122-0.185-0.246-0.494-0.309-0.742c-0.062-0.309-0.123-0.68-0.123-1.05     c0-0.371,0.062-0.743,0.123-1.054c0.063-0.309,0.187-0.556,0.309-0.804c0.125-0.246,0.372-0.37,0.557-0.494     c0.248-0.124,0.496-0.185,0.867-0.185c0.122,0,0.247,0,0.433,0c0.123,0,0.246,0,0.371,0.061c0.123,0,0.186,0.062,0.247,0.062     c0.062,0.063,0.124,0.124,0.124,0.187c0,0.062,0,0.124-0.063,0.185c-0.062,0.063-0.062,0.063-0.123,0.063l0,0l0,0     c-0.124,0-0.248-0.063-0.371-0.063c-0.124,0-0.311-0.061-0.496-0.061c-0.246,0-0.493,0.061-0.617,0.123     c-0.187,0.063-0.31,0.186-0.433,0.371c-0.124,0.185-0.187,0.371-0.248,0.619c-0.063,0.247-0.063,0.557-0.063,0.928     c0,0.31,0,0.619,0.063,0.866c0.062,0.246,0.124,0.433,0.248,0.617c0.123,0.187,0.246,0.31,0.433,0.371     c0.186,0.063,0.433,0.124,0.742,0.124c0.061,0,0.123,0,0.247,0c0.062,0,0.124,0,0.185,0c0.063,0,0.125,0,0.125-0.062     c0.062,0,0.062-0.063,0.062-0.063V47.83C153.819,47.83,153.757,47.769,153.757,47.706"/>
			<path fill="#302D2C" d="M155.799,45.604c0.062-0.125,0.185-0.248,0.309-0.372c0.123-0.062,0.247-0.124,0.433-0.186     c0.186-0.061,0.371-0.061,0.557-0.061c0.494,0,0.741,0.061,0.867,0.122c0.06,0,0.06,0.063,0.06,0.063c0,0.062,0,0.062,0,0.124     c0,0.062,0,0.124-0.06,0.124c0,0.061-0.063,0.061-0.188,0.061c-0.123,0-0.247,0-0.31,0c-0.122,0-0.247,0-0.37,0     c-0.371,0-0.557,0.063-0.68,0.186c-0.125,0.125-0.187,0.311-0.187,0.495c0,0.186,0.062,0.372,0.187,0.557     c0.123,0.186,0.371,0.372,0.68,0.62c0.185,0.123,0.37,0.247,0.494,0.37c0.124,0.124,0.247,0.247,0.31,0.372     c0.063,0.122,0.123,0.247,0.186,0.37s0.063,0.247,0.063,0.371c0,0.433-0.125,0.741-0.434,0.927     c-0.248,0.185-0.618,0.311-1.112,0.311c-0.063,0-0.125,0-0.248,0c-0.063,0-0.185,0-0.247,0s-0.186,0-0.247-0.063     c-0.062,0-0.124,0-0.187-0.063c-0.061-0.06-0.123-0.06-0.123-0.185c0-0.062,0-0.123,0.063-0.123     c0.061-0.063,0.061-0.063,0.123-0.063c0.124,0,0.309,0.063,0.434,0.063c0.122,0,0.248,0,0.37,0c0.123,0,0.248,0,0.371-0.063     c0.124,0,0.248-0.062,0.309-0.123c0.125-0.062,0.187-0.124,0.247-0.248c0.063-0.061,0.063-0.186,0.063-0.37     c0-0.124,0-0.186-0.063-0.248c0-0.061-0.061-0.186-0.122-0.246c-0.063-0.063-0.186-0.187-0.31-0.247     c-0.124-0.125-0.247-0.187-0.433-0.372c-0.185-0.123-0.372-0.247-0.495-0.37c-0.124-0.126-0.247-0.248-0.309-0.372     c-0.063-0.124-0.125-0.248-0.186-0.372c-0.063-0.124-0.063-0.247-0.063-0.37C155.674,45.912,155.736,45.789,155.799,45.604"/>
			<path fill="#302D2C" d="M159.694,45.107c0.062,0,0.123-0.062,0.186-0.062c0.062,0,0.123,0,0.185,0.062     c0.063,0.063,0.063,0.124,0.063,0.187v4.392c0,0.061,0,0.186-0.063,0.186c-0.062,0-0.123,0.06-0.185,0.06     c-0.063,0-0.124,0-0.186-0.06c-0.063,0-0.063-0.063-0.063-0.186v-4.392C159.632,45.17,159.632,45.107,159.694,45.107"/>
			<path fill="#302D2C" d="M164.95,49.809c-0.061,0.063-0.186,0.122-0.37,0.122c-0.187,0-0.31-0.06-0.371-0.122     c-0.063-0.063-0.124-0.186-0.187-0.31l-1.422-3.71c-0.062-0.125-0.062-0.125-0.124-0.125c0,0-0.061,0-0.061,0.063     c0,0,0,0.063,0,0.123v3.896c0,0.063,0,0.185-0.063,0.185s-0.124,0.063-0.186,0.063c-0.063,0-0.123,0-0.186-0.063     c-0.063,0-0.063-0.06-0.063-0.185v-4.082c0-0.186,0.063-0.309,0.126-0.37c0.061-0.063,0.185-0.124,0.371-0.124     c0.123,0,0.185,0,0.247,0c0.062,0,0.124,0.062,0.185,0.062c0.062,0.063,0.062,0.063,0.125,0.187c0,0.061,0.062,0.123,0.123,0.246     l1.359,3.588c0.063,0.124,0.063,0.186,0.125,0.186c0.061,0,0.061-0.062,0.061-0.124v-3.896c0-0.124,0-0.187,0.063-0.187     c0.062,0,0.124-0.062,0.187-0.062c0.061,0,0.122,0,0.185,0.062c0.063,0.063,0.063,0.124,0.063,0.187v4.143     C165.012,49.623,165.012,49.746,164.95,49.809"/>
			<path fill="#302D2C" d="M166.683,45.604c0.061-0.125,0.186-0.248,0.308-0.372c0.125-0.062,0.248-0.124,0.435-0.186     c0.185-0.061,0.37-0.061,0.556-0.061c0.495,0,0.742,0.061,0.865,0.122c0.063,0,0.063,0.063,0.063,0.063c0,0.062,0,0.062,0,0.124     c0,0.062,0,0.124-0.063,0.124c0,0.061-0.062,0.061-0.185,0.061c-0.125,0-0.247,0-0.31,0c-0.123,0-0.248,0-0.371,0     c-0.371,0-0.556,0.063-0.742,0.186c-0.123,0.125-0.185,0.311-0.185,0.495c0,0.186,0.062,0.372,0.185,0.557     c0.124,0.186,0.371,0.372,0.68,0.62c0.186,0.123,0.371,0.247,0.496,0.37c0.122,0.124,0.247,0.247,0.309,0.372     c0.062,0.122,0.123,0.247,0.186,0.37s0.063,0.247,0.063,0.371c0,0.433-0.125,0.741-0.435,0.927     c-0.247,0.185-0.618,0.311-1.111,0.311c-0.063,0-0.125,0-0.248,0c-0.062,0-0.187,0-0.248,0c-0.061,0-0.186,0-0.246-0.063     c-0.063,0-0.125,0-0.187-0.063c-0.061-0.06-0.124-0.06-0.124-0.185c0-0.062,0-0.123,0.063-0.123     c0.061-0.063,0.061-0.063,0.185-0.063c0.123,0,0.309,0.063,0.434,0.063c0.123,0,0.246,0,0.371,0c0.122,0,0.308,0,0.37-0.063     c0.123,0,0.248-0.062,0.309-0.123c0.063-0.062,0.186-0.124,0.186-0.248c0.063-0.061,0.063-0.186,0.063-0.37     c0-0.124,0-0.186-0.063-0.248c0-0.061-0.061-0.186-0.123-0.246c-0.063-0.063-0.186-0.187-0.31-0.247     c-0.124-0.125-0.247-0.187-0.432-0.372c-0.187-0.123-0.371-0.247-0.495-0.37c-0.124-0.126-0.247-0.248-0.31-0.372     s-0.124-0.248-0.185-0.372c-0.063-0.124-0.063-0.247-0.063-0.37C166.558,45.912,166.62,45.789,166.683,45.604"/>
			<path fill="#302D2C" d="M171.443,49.871c-0.063,0-0.124,0.06-0.186,0.06c-0.063,0-0.123,0-0.187-0.06     c-0.062,0-0.062-0.063-0.062-0.187v-3.896c0-0.125,0-0.186,0-0.186c0-0.063-0.062-0.063-0.186-0.063h-0.803     c-0.062,0-0.124,0-0.124-0.063c0-0.061-0.063-0.123-0.063-0.185c0-0.063,0-0.124,0.063-0.187c0-0.062,0.063-0.062,0.124-0.062     h2.474c0.061,0,0.122,0,0.122,0.062c0,0.063,0.063,0.124,0.063,0.124c0,0.063,0,0.124-0.063,0.187     c0,0.061-0.062,0.061-0.122,0.061h-0.805c-0.063,0-0.124,0-0.185,0.063c0,0.063-0.063,0.123-0.063,0.186v3.896     C171.506,49.746,171.506,49.809,171.443,49.871"/>
			<path fill="#302D2C" d="M173.916,45.107c0.063,0,0.125-0.062,0.186-0.062c0.062,0,0.125,0,0.187,0.062     c0.062,0.063,0.062,0.124,0.062,0.187v4.392c0,0.061,0,0.186-0.062,0.186s-0.125,0.06-0.187,0.06c-0.061,0-0.123,0-0.186-0.06     c-0.061,0-0.061-0.063-0.061-0.186v-4.392C173.855,45.17,173.855,45.107,173.916,45.107"/>
			<path fill="#302D2C" d="M177.194,49.871c-0.062,0-0.124,0.06-0.188,0.06c-0.06,0-0.122,0-0.185-0.06     c-0.062,0-0.062-0.063-0.062-0.187v-3.896c0-0.125,0-0.186,0-0.186c0-0.063-0.062-0.063-0.186-0.063h-0.804     c-0.063,0-0.124,0-0.124-0.063c0-0.061-0.061-0.123-0.061-0.185c0-0.063,0-0.124,0.061-0.187     c0.062-0.062,0.062-0.062,0.124-0.062h2.473c0.063,0,0.124,0,0.124,0.062c0,0.063,0.063,0.124,0.063,0.124     c0,0.063,0,0.124-0.063,0.187c0,0.061-0.061,0.061-0.124,0.061h-0.803c-0.062,0-0.124,0-0.187,0.063     c0,0.063-0.061,0.123-0.061,0.186v3.896C177.255,49.746,177.194,49.809,177.194,49.871"/>
			<path fill="#302D2C" d="M182.202,45.107c0.062,0,0.124-0.062,0.186-0.062s0.124,0,0.187,0.062c0.06,0.063,0.06,0.124,0.06,0.187     v3.525c0,0.37-0.122,0.68-0.432,0.866c-0.247,0.186-0.618,0.309-1.114,0.309c-0.555,0-0.927-0.123-1.174-0.309     c-0.246-0.187-0.371-0.496-0.371-0.866v-3.525c0-0.063,0-0.124,0.063-0.187c0.063,0,0.123-0.062,0.185-0.062     c0.063,0,0.124,0,0.187,0.062c0.062,0.063,0.062,0.124,0.062,0.187v3.34c0,0.186,0.062,0.309,0.062,0.434     c0.062,0.122,0.125,0.185,0.186,0.246c0.062,0.063,0.187,0.124,0.31,0.124s0.247,0.062,0.433,0.062c0.124,0,0.309,0,0.434-0.062     c0.123,0,0.246-0.062,0.31-0.124c0.122-0.062,0.185-0.185,0.246-0.246c0.063-0.125,0.063-0.248,0.063-0.434v-3.34     C182.141,45.17,182.141,45.107,182.202,45.107"/>
			<path fill="#302D2C" d="M185.355,49.871c-0.062,0-0.123,0.06-0.186,0.06c-0.062,0-0.123,0-0.186-0.06     c-0.062,0-0.062-0.063-0.062-0.187v-3.896c0-0.125,0-0.186-0.061-0.186c0-0.063-0.063-0.063-0.187-0.063h-0.804     c-0.063,0-0.124,0-0.124-0.063c0-0.061-0.062-0.123-0.062-0.185c0-0.063,0-0.124,0.062-0.187c0-0.062,0.062-0.062,0.124-0.062     h2.473c0.063,0,0.124,0,0.124,0.062c0,0.063,0.062,0.124,0.062,0.124c0,0.063,0,0.124-0.062,0.187     c0,0.061-0.062,0.061-0.124,0.061h-0.804c-0.063,0-0.123,0-0.123,0.063s-0.063,0.123-0.063,0.186v3.896     C185.418,49.746,185.418,49.809,185.355,49.871"/>
		</g>
		<g>
			<path fill="#302D2C" d="M108.432,19.075c-3.463,0-5.688,2.536-5.688,6.493c0,4.02,2.287,6.555,5.813,6.555     c3.462,0,5.565-2.474,5.565-6.555C114.059,21.549,111.895,19.075,108.432,19.075 M117.955,35.029     c-2.351,2.349-5.503,3.524-9.399,3.524c-7.854,0-13.295-5.317-13.295-12.985c0-7.42,5.503-12.923,12.923-12.923     c7.854,0.062,13.417,5.379,13.417,12.985C121.602,29.155,120.182,32.741,117.955,35.029"/>
			<path fill="#302D2C" d="M173.483,34.658c-1.855,2.659-4.947,3.958-9.213,3.958c-3.959,0-7.051-1.423-9.028-4.144     c-1.423-1.979-1.979-3.896-1.979-7.358V12.645h7.295v14.531c0,1.793,0.186,2.783,0.743,3.525     c0.556,0.928,1.855,1.545,3.153,1.545c1.237,0,2.413-0.556,3.03-1.484c0.618-0.803,0.743-1.607,0.743-3.585V12.645h7.233v14.531     C175.462,31.072,175.091,32.493,173.483,34.658"/>
		</g>
		<path fill="#302D2C" d="M150.294,35.277c-0.061,0-0.122,0-0.185,0c-0.927,0-1.483-0.372-2.351-1.299    c1.979-2.659,2.846-5.133,2.846-8.348c0-7.729-5.503-13.048-13.48-13.048c-7.73,0-13.109,5.318-13.109,12.924    c0,7.729,5.564,13.109,13.542,13.109c1.731,0,2.845-0.186,4.7-0.804c1.669,2.72,3.771,3.833,6.926,3.833    c0.433,0,0.741,0,1.051-0.062v-6.307H150.294z M137.372,32.246c-3.587,0-5.813-2.473-5.813-6.554c0-4.144,2.165-6.679,5.688-6.679    c3.587,0,5.752,2.535,5.752,6.679C142.999,29.835,140.896,32.246,137.372,32.246z"/>
		<path fill="#2E386D" d="M74.113,12.645H43.319c-0.742,0-1.361,0.68-1.361,1.546v16.325c0.619-1.113,1.299-2.165,2.226-3.154    c4.886-5.318,12.553-6.493,18.552-3.215v4.947h5.317c3.586,5.627,3.154,13.232-1.67,18.49c-0.804,0.865-1.669,1.606-2.597,2.226    h10.327c0.742,0,1.36-0.68,1.36-1.546V14.191C75.474,13.325,74.855,12.645,74.113,12.645z"/>
	</g>
</g>
</svg>